<?xml version="1.0" encoding="utf-8"?>
<svg viewBox="0 0 500 500"
    xmlns="http://www.w3.org/2000/svg"
    xmlns:bx="https://boxy-svg.com">
    <defs>
        <filter id="filter0_f_703_729" x="-223.25" y="0.599487" width="828.4" height="828.401" filterUnits="userSpaceOnUse" color-interpolation-filters="sRGB">
            <feFlood flood-opacity="0" result="BackgroundImageFix"/>
            <feBlend mode="normal" in="SourceGraphic" in2="BackgroundImageFix" result="shape"/>
            <feGaussianBlur stdDeviation="100" result="effect1_foregroundBlur_703_729"/>
        </filter>
        <linearGradient id="paint0_linear_703_729" x1="190.951" y1="200.599" x2="190.951" y2="629" gradientUnits="userSpaceOnUse">
            <stop stop-color="#FF7BCA"/>
            <stop offset="1" stop-color="#FFC56F" stop-opacity="0.46"/>
        </linearGradient>
        <filter id="filter1_f_703_729" x="7.88306" y="75" width="513.464" height="513.464" filterUnits="userSpaceOnUse" color-interpolation-filters="sRGB">
            <feFlood flood-opacity="0" result="BackgroundImageFix"/>
            <feBlend mode="normal" in="SourceGraphic" in2="BackgroundImageFix" result="shape"/>
            <feGaussianBlur stdDeviation="50" result="effect1_foregroundBlur_703_729"/>
        </filter>
        <linearGradient id="paint1_linear_703_729" x1="264.615" y1="175" x2="264.615" y2="488.464" gradientUnits="userSpaceOnUse">
            <stop stop-color="#F22FB0"/>
            <stop offset="1" stop-color="#F58A25" stop-opacity="0"/>
            <stop offset="1" stop-color="#7061A3"/>
        </linearGradient>
        <linearGradient id="paint0_linear_896_1587" x1="13.5177" y1="0" x2="13.5177" y2="27.0355" gradientUnits="userSpaceOnUse" gradientTransform="matrix(1, 0, 0, 1, 185.453629, 231.067154)">
            <stop stop-color="#9327FF"/>
            <stop offset="1" stop-color="#FFA927"/>
        </linearGradient>
        <style bx:fonts="Montserrat Alternates">@import url(https://fonts.googleapis.com/css2?family=Montserrat+Alternates%3Aital%2Cwght%400%2C100%3B0%2C200%3B0%2C300%3B0%2C400%3B0%2C500%3B0%2C600%3B0%2C700%3B0%2C800%3B0%2C900%3B1%2C100%3B1%2C200%3B1%2C300%3B1%2C400%3B1%2C500%3B1%2C600%3B1%2C700%3B1%2C800%3B1%2C900&amp;display=swap);</style>
    </defs>
    <rect x="-0.19" y="-0.493" width="501.066" height="500.267" style="stroke: rgb(0, 0, 0); stroke-width: 0px;"/>
    <g transform="matrix(1, 0, 0, 1, 57.87114715576166, 9.002908706665039)">
        <g filter="url(#filter0_f_703_729)" transform="matrix(0.780296, 0, 0, 0.780296, 33.87611, -81.614212)" style="">
            <circle cx="190.951" cy="414.8" r="214.2" fill="url(#paint0_linear_703_729)" style="fill-opacity: 0.45;"/>
        </g>
        <g filter="url(#filter1_f_703_729)" transform="matrix(0.780296, 0, 0, 0.780296, 33.87611, -81.614212)" style="">
            <circle cx="264.615" cy="331.732" r="156.732" fill="url(#paint1_linear_703_729)" style="fill-opacity: 0.45;"/>
        </g>
    </g>
    <g transform="matrix(1.896136999130249, 0, 0, 1.896136999130249, -296.5963439941406, -383.4167175292969)" style="">
        <path d="M 195.524 245.855 C 202.659 241.121 206.316 254.591 210.393 256.925 C 202.779 261.927 199.601 249.59 195.524 245.855 Z" fill="#FFA927"/>
        <path fill-rule="evenodd" clip-rule="evenodd" d="M 212.489 244.585 C 212.489 248.048 211.187 251.206 209.046 253.598 C 208.864 253.34 208.681 253.078 208.496 252.815 C 207.62 251.567 206.709 250.268 205.769 249.012 C 206.599 247.739 207.082 246.218 207.082 244.585 C 207.082 240.106 203.451 236.474 198.971 236.474 C 194.492 236.474 190.861 240.106 190.861 244.585 C 190.861 248.493 193.625 251.756 197.305 252.524 L 194.518 257.352 C 189.24 255.511 185.454 250.49 185.454 244.585 C 185.454 237.119 191.506 231.067 198.971 231.067 C 206.437 231.067 212.489 237.119 212.489 244.585 Z M 195.581 257.674 C 196.664 257.954 197.8 258.103 198.971 258.103 C 200.262 258.103 201.511 257.922 202.693 257.584 C 201.318 256.206 200.125 254.49 198.989 252.695 L 198.971 252.696 C 198.801 252.696 198.632 252.69 198.464 252.68 L 195.581 257.674 Z" fill="url(#paint0_linear_896_1587)"/>
        <path d="M 237.098 237.488 L 237.098 258.102 L 232.504 258.102 L 232.504 255.477 C 231.732 256.404 230.767 257.124 229.609 257.639 C 228.451 258.128 227.203 258.373 225.865 258.373 C 223.111 258.373 220.936 257.613 219.341 256.095 C 217.771 254.551 216.986 252.273 216.986 249.262 L 216.986 237.488 L 221.811 237.488 L 221.811 248.606 C 221.811 250.459 222.223 251.849 223.047 252.775 C 223.896 253.676 225.093 254.126 226.637 254.126 C 228.361 254.126 229.725 253.599 230.729 252.544 C 231.758 251.463 232.273 249.919 232.273 247.911 L 232.273 237.488 L 237.098 237.488 Z M 263.374 237.488 L 263.374 254.975 C 263.374 262.233 259.809 265.861 252.681 265.861 C 250.802 265.861 249.001 265.604 247.276 265.089 C 245.578 264.6 244.175 263.88 243.069 262.928 L 245.23 259.299 C 246.105 260.045 247.173 260.637 248.434 261.075 C 249.695 261.512 251.021 261.731 252.41 261.731 C 254.521 261.731 256.065 261.216 257.043 260.187 C 258.046 259.183 258.548 257.626 258.548 255.516 L 258.548 254.551 C 257.776 255.4 256.837 256.056 255.73 256.52 C 254.624 256.957 253.427 257.176 252.14 257.176 C 249.387 257.176 247.212 256.417 245.616 254.898 C 244.047 253.38 243.262 251.102 243.262 248.066 L 243.262 237.488 L 248.087 237.488 L 248.087 247.448 C 248.087 249.275 248.499 250.652 249.322 251.578 C 250.171 252.479 251.368 252.93 252.912 252.93 C 254.637 252.93 256.001 252.402 257.004 251.347 C 258.034 250.292 258.548 248.76 258.548 246.753 L 258.548 237.488 L 263.374 237.488 Z M 282.816 258.102 L 277.528 250.961 L 272.201 258.102 L 266.874 258.102 L 274.903 247.641 L 267.221 237.488 L 272.587 237.488 L 277.644 244.244 L 282.701 237.488 L 287.912 237.488 L 280.191 247.564 L 288.26 258.102 L 282.816 258.102 Z" fill="white"/>
    </g>
    <path style="fill: rgb(216, 216, 216); stroke: rgb(255, 255, 255); transform-origin: 249.999px 278.888px;" d="M 39.936 280.519 L 460.063 277.257" transform="matrix(1, 0, 0, 1, 0, 119.406784057621)"/>
    <path style="fill: rgb(216, 216, 216); stroke: rgb(255, 255, 255); transform-origin: 249.999px 278.888px;" d="M 39.936 280.519 L 460.063 277.257"/>
    <text style="fill: rgba(255, 255, 255, 0.663); font-family: 'Montserrat Alternates'; font-weight: 500; white-space: pre; font-size: 15px;" x="60.504" y="270.281">USERNAME</text>
    <text style="fill: rgba(255, 255, 255, 0.663); font-family: 'Montserrat Alternates'; font-weight: 500; white-space: pre; font-size: 15px;" x="60.504" y="387.557">LENGTH</text>
    <text style="fill: rgb(255, 255, 255); font-family: 'Montserrat Alternates'; font-size: 16px; font-weight: 600; white-space: pre;" x="61.306" y="306.677">[[USERNAME]]</text>
    <text style="fill: rgb(255, 255, 255); font-family: 'Montserrat Alternates'; font-size: 16px; font-weight: 600; white-space: pre;" x="64.168" y="423.354">[[LENGTH]]</text>
    <path style="fill: rgb(255, 255, 255); stroke: rgb(255, 255, 255);" d="M 406.089 217.591 L 407.732 460.22"/>
</svg>